#!OML:ASF I:\Actors\actors\Patient Classification 2\Patient 1\Session 1\actor1.ASF
:FULLY-SPECIFIED
:DEGREES
259
root -1.42429 18.7757 5.00223 9.38431 2.7121 -2.75415
lowerback 20.6763 -1.33872 3.25923
upperback 8.81737 -1.06771 1.12608
thorax -2.03306 -0.470865 -0.419158
lowerneck -24.7821 -1.88588 -2.47675
upperneck 14.2853 -2.65773 4.6623
head 8.58733 -0.866636 1.61952
rclavicle 9.54788e-015 -1.84808e-014
rhumerus -56.556 69.3142 -145.677
rradius 121.146
rwrist -22.3657
rhand -8.98894 -36.2179
rfingers 7.12502
rthumb 16.9571 -65.4977
lclavicle 9.54788e-015 -1.84808e-014
lhumerus -5.59832 -80.658 97.0496
lradius 109.506
lwrist 48.5025
lhand 11.0749 -15.3473
lfingers 7.12502
lthumb 36.1451 10.9334
rfemur -7.95008 0.523522 19.8524
rtibia 7.56405
rfoot -18.428 -13.9387
rtoes -7.88345
lfemur -20.8707 -3.71215 -7.78368
ltibia 25.7913
lfoot -15.3849 7.45988
ltoes -57.6418
260
root -1.38109 18.7769 5.00025 9.50001 2.7229 -2.64919
lowerback 20.5703 -1.34213 3.11496
upperback 8.73326 -1.10145 1.11887
thorax -2.07002 -0.491686 -0.33872
lowerneck -24.6888 -1.83275 -2.39353
upperneck 14.3244 -2.61451 4.64893
head 8.58252 -0.8438 1.60798
rclavicle -8.69372e-015 -8.59122e-015
rhumerus -56.3821 69.9219 -145.669
rradius 121.457
rwrist -22.24
rhand -8.82171 -36.867
rfingers 7.12502
rthumb 17.1181 -66.1329
lclavicle -8.69372e-015 -8.59122e-015
lhumerus -5.88642 -80.3055 97.3207
lradius 109.878
lwrist 47.3511
lhand 10.7966 -15.3669
lfingers 7.12502
lthumb 35.8815 10.9787
rfemur -8.02731 0.45063 19.5763
rtibia 7.46385
rfoot -18.3185 -13.9949
rtoes -8.1611
lfemur -20.9918 -3.88837 -8.02223
ltibia 25.7786
lfoot -15.5481 7.53304
ltoes -57.4616
261
root -1.33795 18.7794 5.00026 9.55543 2.68625 -2.50381
lowerback 20.5205 -1.31897 2.87623
upperback 8.6925 -1.11775 1.09074
thorax -2.0871 -0.504979 -0.230361
lowerneck -24.7072 -1.79117 -2.33685
upperneck 14.4193 -2.5842 4.66434
head 8.61672 -0.823226 1.60903
rclavicle 7.5344e-015 -1.59183e-015
rhumerus -56.037 70.655 -145.549
rradius 121.744
rwrist -22.3111
rhand -9.04013 -37.3923
rfingers 7.12502
rthumb 16.9078 -66.6763
lclavicle 7.5344e-015 -1.59183e-015
lhumerus -6.03766 -79.8884 97.4039
lradius 110.364
lwrist 46.3518
lhand 10.834 -14.8888
lfingers 7.12502
lthumb 35.9169 11.4481
rfemur -7.83086 0.418629 19.2596
rtibia 6.97789
rfoot -18.0575 -14.1863
rtoes -8.55054
lfemur -21.0765 -3.963 -8.31691
ltibia 25.8806
lfoot -15.7302 7.48336
ltoes -57.3108
262
root -1.28779 18.7794 4.99844 9.4583 2.7051 -2.62995
lowerback 20.6589 -1.33032 2.95319
upperback 8.67442 -1.10932 1.15548
thorax -2.17587 -0.501381 -0.204353
lowerneck -24.7946 -1.78296 -2.2827
upperneck 14.5411 -2.57633 4.57278
head 8.6705 -0.824265 1.57054
rclavicle -2.8917e-015 -5.31128e-015
rhumerus -55.7431 71.4387 -145.479
rradius 121.967
rwrist -22.3651
rhand -9.61102 -37.8173
rfingers 7.12502
rthumb 16.3582 -67.1475
lclavicle -2.8917e-015 -5.31128e-015
lhumerus -6.11953 -79.3869 97.5136
lradius 110.839
lwrist 45.4388
lhand 11.3452 -14.477
lfingers 7.12502
lthumb 36.401 11.74
rfemur -7.44999 0.377454 19.2308
rtibia 6.45494
rfoot -17.8127 -14.3479
rtoes -8.85437
lfemur -21.0113 -3.86645 -8.35379
ltibia 25.9754
lfoot -15.8096 7.28762
ltoes -57.2627
263
root -1.22177 18.777 4.99261 9.14107 2.86342 -3.28567
lowerback 21.0027 -1.48643 3.81996
upperback 8.67143 -1.12624 1.28252
thorax -2.3597 -0.495984 -0.549904
lowerneck -24.81 -1.77479 -2.16258
upperneck 14.6556 -2.58565 4.45065
head 8.70925 -0.833987 1.50829
rclavicle 6.39838e-015 1.45982e-015
rhumerus -55.425 72.0065 -145.363
rradius 122.203
rwrist -22.3123
rhand -9.7499 -38.0714
rfingers 7.12502
rthumb 16.2245 -67.4125
lclavicle 6.39838e-015 1.45982e-015
lhumerus -6.34268 -79.0654 97.7265
lradius 111.255
lwrist 44.693
lhand 11.5484 -14.4694
lfingers 7.12502
lthumb 36.5934 11.6991
rfemur -6.86096 0.29163 19.7523
rtibia 5.96544
rfoot -17.5691 -14.4897
rtoes -9.23202
lfemur -20.7557 -3.71406 -7.86188
ltibia 26.0568
lfoot -15.826 7.03798
ltoes -57.2562
264
root -1.17549 18.7813 4.99841 9.10413 2.71595 -3.05719
lowerback 20.9947 -1.3525 3.40821
upperback 8.64586 -1.0337 1.2387
thorax -2.37713 -0.458701 -0.384294
lowerneck -24.8262 -1.7626 -2.0766
upperneck 14.7549 -2.59329 4.40642
head 8.7447 -0.836183 1.47854
rclavicle -6.73383e-015 -2.35436e-014
rhumerus -54.9521 72.4494 -145.064
rradius 122.441
rwrist -22.2076
rhand -9.94132 -37.9993
rfingers 7.12502
rthumb 16.0402 -67.3553
lclavicle -6.73383e-015 -2.35436e-014
lhumerus -6.22042 -78.9587 97.5919
lradius 111.686
lwrist 44.248
lhand 11.3565 -14.2016
lfingers 7.12502
lthumb 36.4118 12.0127
rfemur -6.51808 0.361785 19.3302
rtibia 5.419
rfoot -17.3472 -14.6342
rtoes -9.13636
lfemur -20.6836 -3.60499 -8.31593
ltibia 26.109
lfoot -15.8651 7.04847
ltoes -57.2415
265
root -1.13082 18.786 5.00404 9.09784 2.39394 -2.56514
lowerback 20.9648 -1.10392 2.60406
upperback 8.62307 -0.870721 1.15955
thorax -2.37678 -0.39393 -0.0499143
lowerneck -24.8654 -1.75668 -2.08751
upperneck 14.7938 -2.57998 4.39468
head 8.76409 -0.830997 1.47836
rclavicle -8.03835e-015 2.01642e-014
rhumerus -54.2769 72.9592 -144.592
rradius 122.643
rwrist -22.1569
rhand -10.3181 -37.9425
rfingers 7.12502
rthumb 15.6773 -67.3274
lclavicle -8.03835e-015 2.01642e-014
lhumerus -5.89244 -78.7686 97.3434
lradius 112.027
lwrist 43.4265
lhand 11.2908 -13.9785
lfingers 7.12502
lthumb 36.3496 12.2513
rfemur -6.17443 0.560887 18.5976
rtibia 4.75737
rfoot -17.1036 -14.81
rtoes -8.96886
lfemur -20.6106 -3.49057 -9.0671
ltibia 26.165
lfoot -15.9481 7.12832
ltoes -57.1098
266
root -1.07582 18.7875 5.0078 9.04767 2.09535 -2.28423
lowerback 21.0044 -0.927791 2.11976
upperback 8.55974 -0.735707 1.12018
thorax -2.45964 -0.337841 0.153523
lowerneck -24.8545 -1.75039 -2.20315
upperneck 14.8378 -2.53993 4.4273
head 8.77795 -0.815087 1.51438
rclavicle 4.84538e-016 -2.21148e-015
rhumerus -53.4064 73.5627 -144.022
rradius 122.838
rwrist -22.1672
rhand -10.4648 -37.9419
rfingers 7.12502
rthumb 15.5361 -67.3378
lclavicle 4.84538e-016 -2.21148e-015
lhumerus -6.34501 -78.3297 97.8467
lradius 112.328
lwrist 42.0223
lhand 11.5317 -13.8959
lfingers 7.12502
lthumb 36.5776 12.2766
rfemur -5.93936 0.770692 18.0664
rtibia 4.39041
rfoot -16.9463 -14.9141
rtoes -9.16057
lfemur -20.4737 -3.30753 -9.6239
ltibia 26.1705
lfoot -16.0157 7.18736
ltoes -57.0431
267
root -1.01066 18.787 5.01441 9.03248 1.96245 -2.34551
lowerback 20.9585 -0.865358 2.08148
upperback 8.47019 -0.659317 1.20474
thorax -2.5309 -0.303685 0.248165
lowerneck -24.8774 -1.74883 -2.37901
upperneck 14.9275 -2.47141 4.38814
head 8.81143 -0.796891 1.53974
rclavicle -1.05356e-014 1.38155e-014
rhumerus -52.4702 74.3301 -143.359
rradius 123.095
rwrist -22.1596
rhand -10.4128 -37.8519
rfingers 7.12502
rthumb 15.5861 -67.2439
lclavicle -1.05356e-014 1.38155e-014
lhumerus -7.18872 -77.6021 98.8231
lradius 112.639
lwrist 40.1781
lhand 12.2673 -13.9045
lfingers 7.12502
lthumb 37.2735 12.0887
rfemur -5.52082 0.871485 17.8953
rtibia 3.62831
rfoot -16.6341 -15.1505
rtoes -9.58879
lfemur -20.4335 -3.05857 -9.83825
ltibia 26.2334
lfoot -16.0611 7.1479
ltoes -57.2322
268
root -0.943909 18.7889 5.01989 9.05259 1.87881 -2.43788
lowerback 20.8606 -0.824437 1.99976
upperback 8.39466 -0.616681 1.37315
thorax -2.55993 -0.287928 0.463587
lowerneck -24.913 -1.71202 -2.53284
upperneck 14.9221 -2.33391 4.23218
head 8.80916 -0.759341 1.53066
rclavicle 1.2921e-015 -8.10048e-015
rhumerus -51.6076 75.2445 -142.665
rradius 123.402
rwrist -21.9782
rhand -10.1735 -37.7675
rfingers 7.12502
rthumb 15.8165 -67.1414
lclavicle 1.2921e-015 -8.10048e-015
lhumerus -7.86267 -76.5593 99.8208
lradius 112.893
lwrist 38.0262
lhand 13.0931 -14.3643
lfingers 7.12502
lthumb 38.0538 11.4203
rfemur -4.56573 0.931496 17.742
rtibia 1.70085
rfoot -15.844 -15.7243
rtoes -9.66257
lfemur -20.4904 -2.86072 -10.0049
ltibia 26.36
lfoot -16.1298 7.07831
ltoes -57.3637
269
root -0.877536 18.7931 5.02358 9.02994 1.72706 -2.4886
lowerback 20.8496 -0.751244 1.85155
upperback 8.32363 -0.543957 1.50836
thorax -2.62826 -0.258099 0.675732
lowerneck -24.9226 -1.66792 -2.56018
upperneck 14.8224 -2.22119 4.04458
head 8.76927 -0.73041 1.48604
rclavicle -5.71506e-015 -1.10325e-014
rhumerus -50.2951 76.1393 -141.547
rradius 123.69
rwrist -21.7317
rhand -9.8139 -37.4222
rfingers 7.12502
rthumb 16.1628 -66.7683
lclavicle -5.71506e-015 -1.10325e-014
lhumerus -8.67087 -75.4577 100.964
lradius 113.186
lwrist 36.1379
lhand 13.5202 -14.942
lfingers 7.12502
lthumb 38.4569 10.7314
rfemur -3.69145 1.05543 17.5275
rtibia -7.95139e-015
rfoot -15.1507 -16.21
rtoes -9.39298
lfemur -20.5092 -2.67501 -10.2111
ltibia 26.515
lfoot -16.2208 7.03248
ltoes -57.3172
270
root -0.810931 18.7973 5.02905 8.97793 1.53268 -2.49441
lowerback 20.8827 -0.657885 1.70243
upperback 8.23445 -0.446815 1.577
thorax -2.73978 -0.215121 0.812624
lowerneck -24.9423 -1.64064 -2.48796
upperneck 14.7662 -2.16596 3.84896
head 8.74726 -0.722829 1.41451
rclavicle 6.06293e-015 6.95746e-016
rhumerus -48.8104 76.8321 -140.36
rradius 124.129
rwrist -21.5117
rhand -9.53528 -37.0068
rfingers 7.12502
rthumb 16.4311 -66.3309
lclavicle 6.06293e-015 6.95746e-016
lhumerus -9.39694 -74.3955 101.968
lradius 113.548
lwrist 34.3634
lhand 13.7603 -15.4251
lfingers 7.12502
lthumb 38.6835 10.1849
rfemur -3.62588 1.20936 17.2716
rtibia -3.18055e-015
rfoot -15.1679 -16.1874
rtoes -9.33089
lfemur -20.4665 -2.4442 -10.4816
ltibia 26.6492
lfoot -16.2965 6.97887
ltoes -57.2857
